<svg id="Layer_1" enable-background="new 0 0 480.115 480.115" height="512" viewBox="0 0 480.115 480.115" width="512" xmlns="http://www.w3.org/2000/svg"><path d="m456.034 271.057v169c0 22.056-17.944 40-40 40h-352c-22.056 0-40-17.944-40-40v-169c0-4.418 3.582-8 8-8s8 3.582 8 8v169c0 13.233 10.767 24 24 24h352c13.233 0 24-10.767 24-24v-169c0-4.418 3.582-8 8-8s8 3.582 8 8zm-404-143c0 4.418 3.582 8 8 8 438.564 0 413.716.775 416.887-1.676 1.615-1.252 2.725-3.073 3.028-5.219.444-3.214 3.397 4.88-52.574-124.285-1.269-2.926-4.152-4.819-7.341-4.819h-360c-3.188 0-6.072 1.894-7.341 4.819l-52 120c-.919 2.122-.659-1.246-.659 52.813.057 36.386 29.664 65.987 66 65.987 24.979 0 46.778-13.99 57.983-34.556 25.025 45.989 90.944 46.042 116.017.03 25.05 45.972 90.941 45.987 116 0 11.197 20.549 32.998 34.525 58 34.525 36.393 0 66-29.607 66-66 0-4.418-3.582-8-8-8s-8 3.582-8 8c0 27.57-22.43 50-50 50s-50-22.43-50-50c0-4.418-3.582-8-8-8s-8 3.582-8 8c0 27.57-22.43 50-50 50s-50-22.43-50-50c0-4.418-3.582-8-8-8s-8 3.582-8 8c0 27.57-22.43 50-50 50-26.958 0-50-21.664-50-50.4 0-4.418-3.582-8-8-8s-8 3.582-8 8c0 28.494-22.899 50.4-50 50.4-27.527 0-49.957-22.436-50-50v-47.961l49.252-113.658h349.496l45.066 104h-399.814c-4.418 0-8 3.582-8 8zm32 198c0-20.732 16.867-37.6 37.6-37.6s37.601 16.867 37.601 37.6-16.867 37.6-37.601 37.6c-20.733 0-37.6-16.867-37.6-37.6zm16 0c0 11.91 9.689 21.6 21.6 21.6s21.601-9.689 21.601-21.6-9.69-21.6-21.601-21.6-21.6 9.69-21.6 21.6zm90.667 37.6c-4.418 0-8-3.582-8-8v-59.199c0-4.418 3.582-8 8-8h19.733c15.292 0 27.733 12.441 27.733 27.733s-12.441 27.732-27.733 27.732h-11.733v11.733c0 4.419-3.582 8.001-8 8.001zm8-35.733h11.733c6.47 0 11.733-5.263 11.733-11.732s-5.264-11.733-11.733-11.733h-11.733zm110.399-23.466c4.418 0 8-3.582 8-8s-3.582-8-8-8h-39.467c-4.418 0-8 3.582-8 8v59.199c0 4.418 3.582 8 8 8h39.467c4.418 0 8-3.582 8-8s-3.582-8-8-8h-31.467v-13.6h19.4c4.418 0 8-3.582 8-8s-3.582-8-8-8h-19.4v-13.6h31.467zm47.467 51.199v-32.777l24.811 37.215c4.376 6.565 14.656 3.452 14.656-4.438v-59.199c0-4.418-3.582-8-8-8s-8 3.582-8 8v32.777l-24.811-37.215c-4.375-6.565-14.656-3.452-14.656 4.438v59.199c0 4.418 3.582 8 8 8s8-3.582 8-8zm-264.533 62.4h296c4.418 0 8-3.582 8-8s-3.582-8-8-8h-296c-4.418 0-8 3.582-8 8s3.582 8 8 8z"/></svg>